<?xml version="1.0" encoding="UTF-8"?>
<svg id="Capa_1" xmlns="http://www.w3.org/2000/svg" version="1.1" xmlns:xlink="http://www.w3.org/1999/xlink" viewBox="0 0 387 336">
  <!-- Generator: Adobe Illustrator 29.0.1, SVG Export Plug-In . SVG Version: 2.1.0 Build 192)  -->
  <defs>
    <style>
      .st0 {
        font-family: Satoshi-Bold, Satoshi;
        font-size: 36px;
        font-weight: 700;
      }

      .st0, .st1 {
        fill: #cfb7e5;
      }

      .st2 {
        fill: #fefefe;
      }

      .st2, .st3, .st4, .st5, .st1 {
        fill-rule: evenodd;
      }

      .st3 {
        fill: #6315a8;
      }

      .st6 {
        clip-rule: evenodd;
        fill: none;
      }

      .st4 {
        fill: #a071ca;
      }

      .st5 {
        fill: #be9edb;
      }

      .st7 {
        clip-path: url(#clippath);
      }
    </style>
    <clipPath id="clippath">
      <polygon class="st6" points="98.6 189 65.4 169.9 65.5 131.3 98.7 112.5 131.9 131.3 132.1 169.5 98.6 189"/>
    </clipPath>
  </defs>
  <g class="st7">
    <path class="st2" d="M19.1,62.2h157.4v136.6H19.1V62.2Z"/>
    <path class="st1" d="M132.1,169.5c-11.1-6.2-22.2-12.5-33.3-18.7-10.9-6.5-21.9-12.8-32.9-19.1,0-.3-.1-.4-.4-.4,10.2-6.1,20.5-12.1,30.9-18.1,1-.8,2.1-1,3.3-.8,10.7,6.4,21.5,12.7,32.3,18.9.2,12.7.3,25.5.2,38.2Z"/>
    <path class="st5" d="M65.4,131.3c.3,0,.4.1.4.4-.4,12.5-.5,25.1-.4,37.8v.4c-.5-12.9-.5-25.8,0-38.6Z"/>
    <path class="st4" d="M65.9,131.7c11.1,6.3,22,12.6,32.9,19.1-11.1,6.2-22.2,12.5-33.3,18.7-.1-12.7,0-25.3.4-37.8Z"/>
    <path class="st3" d="M98.8,150.8c11.1,6.2,22.2,12.5,33.3,18.7-1,1.1-2.3,2-3.7,2.6-9.9,5.7-19.9,11.3-29.9,16.9-11.2-6.2-22.2-12.6-33.1-19.1v-.4c11.1-6.2,22.2-12.5,33.3-18.7Z"/>
  </g>
  <text class="st0" transform="translate(140.6 161.9)"><tspan x="0" y="0">SongBox</tspan></text>
</svg>